<svg id="fb030e4c-897e-4565-ae43-0dd453ff083b" data-name="Capa 1" xmlns="http://www.w3.org/2000/svg" viewBox="0 0 75.68 98.04"><defs><style>.a4539b2c-cd1e-40bc-a67a-3fdbc9c60ccf{fill:#fff;}</style></defs><title>Manual</title><path class="a4539b2c-cd1e-40bc-a67a-3fdbc9c60ccf" d="M52.66,0H7.3A7.3,7.3,0,0,0,0,7.3V90.74A7.3,7.3,0,0,0,7.3,98H68.38a7.3,7.3,0,0,0,7.3-7.3V23.18Zm1.61,9.34L66.4,21.59H54.27ZM67.62,92.57H5.47V8A2.58,2.58,0,0,1,8.06,5.47H48.81V27H70.22V90A2.59,2.59,0,0,1,67.62,92.57Z"/><rect class="a4539b2c-cd1e-40bc-a67a-3fdbc9c60ccf" x="12.22" y="22.34" width="30.31" height="3.93"/><rect class="a4539b2c-cd1e-40bc-a67a-3fdbc9c60ccf" x="12.22" y="40.34" width="51.24" height="3.93"/><rect class="a4539b2c-cd1e-40bc-a67a-3fdbc9c60ccf" x="12.22" y="58.33" width="51.24" height="3.93"/><rect class="a4539b2c-cd1e-40bc-a67a-3fdbc9c60ccf" x="12.22" y="76.33" width="51.24" height="3.93"/></svg>